<mxfile host="app.diagrams.net" modified="2023-11-06T06:22:10.876Z" agent="Mozilla/5.0 (Macintosh; Intel Mac OS X 10_15_7) AppleWebKit/537.36 (KHTML, like Gecko) Chrome/118.0.0.0 Safari/537.36" version="22.0.8" etag="Kue8q3ddYSV6LqKS6d4G" type="github">
  <diagram name="Sayfa -1" id="TTXpomwoFLD-V6OvcMEz">
    <mxGraphModel>
      <root>
        <mxCell id="0" />
        <mxCell id="1" parent="0" />
      </root>
    </mxGraphModel>
  </diagram>
</mxfile>
